<svg xmlns="http://www.w3.org/2000/svg" viewBox="0 0 48 48"><defs><style>.cls-9{fill:#231f20}</style></defs><g id="Secure_Payment" data-name="Secure Payment"><rect x="6" y="6" width="70" height="28" rx="2" ry="2" style="fill:#4ac6b7"/><path d="M44 6h-3a2 2 0 0 1 2 2v24a2 2 0 0 1-2 2h3a2 2 0 0 0 2-2V8a2 2 0 0 0-2-2z" style="fill:#37b7a4"/><path style="fill:#29a892" d="M6 11h40v7H6z"/><path style="fill:#1b967e" d="M43 11h3v7h-3z"/><circle cx="38" cy="26" r="3" style="fill:#ffbc5a"/><circle cx="33" cy="26" r="3" style="fill:#e05555"/><path d="M10.003 42C8.245 41.356 2 38.675 2 33.086v-8.144L10 22l8 2.942v8.144c0 5.616-6.237 8.276-7.997 8.914z" style="fill:#d3dbef"/><path d="M10 34a.999.999 0 0 1-.707-.293l-2-2a1 1 0 0 1 1.414-1.414l1.185 1.185L12.2 28.4a1 1 0 1 1 1.6 1.2l-3 4a.998.998 0 0 1-.729.398A1.128 1.128 0 0 1 10 34z" style="fill:#8491c1"/><path class="cls-9" d="M44 5H8a3.003 3.003 0 0 0-3 3v14.774l-3.345 1.23a1 1 0 0 0-.655.938v8.144c0 6.2 6.627 9.11 8.659 9.854a1.014 1.014 0 0 0 .343.06.996.996 0 0 0 .341-.06c1.81-.657 7.254-3.028 8.423-7.94H44a3.003 3.003 0 0 0 3-3V8a3.003 3.003 0 0 0-3-3zM7 12h38v5H7zm3.004 28.93C7.98 40.136 3 37.702 3 33.087V25.64l7-2.574 7 2.574v7.446c0 4.639-4.975 7.056-6.996 7.845zM45 32a1.001 1.001 0 0 1-1 1H19v-8.058a1 1 0 0 0-.655-.938l-8-2.943a1 1 0 0 0-.69 0L7 22.038V19h38zM7 10V8a1.001 1.001 0 0 1 1-1h36a1.001 1.001 0 0 1 1 1v2z"/><path class="cls-9" d="M33 30a3.96 3.96 0 0 0 2.49-.894 4 4 0 1 0 0-6.212A3.96 3.96 0 0 0 33 22a4 4 0 0 0 0 8zm7-4a2.002 2.002 0 0 1-2 2 1.968 1.968 0 0 1-1.302-.486 3.948 3.948 0 0 0 0-3.028A1.968 1.968 0 0 1 38 24a2.002 2.002 0 0 1 2 2zm-7-2a2 2 0 1 1-2 2 2.002 2.002 0 0 1 2-2zM12.2 28.4l-2.308 3.078-1.185-1.185a1 1 0 0 0-1.414 1.414l2 2A.999.999 0 0 0 10 34a.882.882 0 0 0 .07-.003.998.998 0 0 0 .73-.397l3-4a1 1 0 1 0-1.6-1.2z"/></g></svg>